<?xml version="1.0" standalone="no"?><!DOCTYPE svg PUBLIC "-//W3C//DTD SVG 1.1//EN" "http://www.w3.org/Graphics/SVG/1.1/DTD/svg11.dtd"><svg t="1730431623912" class="icon" viewBox="0 0 1024 1024" version="1.1" xmlns="http://www.w3.org/2000/svg" p-id="3495" xmlns:xlink="http://www.w3.org/1999/xlink" width="200" height="200"><path d="M220.72888889 463.45481443a97.09036999 97.09036999 0 0 1 97.09036999-97.09036998h388.36148224a97.09036999 97.09036999 0 0 1 97.09036999 97.09036998v339.81629668a97.09036999 97.09036999 0 0 1-97.09036999 97.09036999H317.81925888a97.09036999 97.09036999 0 0 1-97.09036999-97.09036999z m291.27111111-436.90666666a97.09036999 97.09036999 0 0 0-97.09036999 97.09037113 97.09036999 97.09036999 0 0 0 48.54518442 83.49771776V269.27407445H317.81925888a194.18074112 194.18074112 0 0 0-194.18073998 194.18073998v97.09037114a97.09036999 97.09036999 0 0 0 0 194.18073998v48.54518556a194.18074112 194.18074112 0 0 0 194.18073998 194.18074112h388.36148224a194.18074112 194.18074112 0 0 0 194.18073998-194.18074112v-48.54518556a97.09036999 97.09036999 0 0 0 0-194.18073998v-97.09037114a194.18074112 194.18074112 0 0 0-194.18073998-194.18073998h-145.63555555V207.13623666a97.09036999 97.09036999 0 0 0-27.67075556-178.16082887A76.70139221 76.70139221 0 0 0 512 26.54814777z m-48.54518557 509.72444444a72.81777778 72.81777778 0 0 0-145.63555555 0 24.27259221 24.27259221 0 0 0 24.27259335 24.27259336h97.09036999a24.27259221 24.27259221 0 0 0 24.27259221-24.27259336z m169.90814891-72.81777778a72.81777778 72.81777778 0 0 0-72.81777777 72.81777778 24.27259221 24.27259221 0 0 0 24.27259221 24.27259336h97.09036999a24.27259221 24.27259221 0 0 0 24.27259335-24.27259336 72.81777778 72.81777778 0 0 0-72.81777778-72.81777778z m-24.27259335 194.18074112h-194.18073998a48.54518557 48.54518557 0 0 0-48.54518556 48.54518557 97.09036999 97.09036999 0 0 0 97.09036998 97.09036999h97.09037114a97.09036999 97.09036999 0 0 0 97.09036998-97.09036999 48.54518557 48.54518557 0 0 0-48.54518556-48.54518557z" fill="#2c2c2c" p-id="3496"></path></svg>