<?xml version="1.0" encoding="UTF-8"?>
<!DOCTYPE svg PUBLIC "-//W3C//DTD SVG 1.1//EN" "http://www.w3.org/Graphics/SVG/1.1/DTD/svg11.dtd">
<svg xmlns="http://www.w3.org/2000/svg" version="1.1" width="250px" height="250px" style="shape-rendering:geometricPrecision; text-rendering:geometricPrecision; image-rendering:optimizeQuality; fill-rule:evenodd; clip-rule:evenodd" xmlns:xlink="http://www.w3.org/1999/xlink">
<g><path style="opacity:0.997" fill="#fefefe" d="M 29.5,-0.5 C 92.8333,-0.5 156.167,-0.5 219.5,-0.5C 236.011,2.34267 246.011,12.0093 249.5,28.5C 249.5,92.5 249.5,156.5 249.5,220.5C 246.271,236.062 236.938,245.729 221.5,249.5C 156.833,249.5 92.1667,249.5 27.5,249.5C 12.0353,245.703 2.70193,236.036 -0.5,220.5C -0.5,156.167 -0.5,91.8333 -0.5,27.5C 3.43867,11.5581 13.4387,2.2248 29.5,-0.5 Z"/></g>
<g><path style="opacity:1" fill="#2d2d2d" d="M 133.5,63.5 C 132.515,67.6344 132.182,71.9677 132.5,76.5C 142.5,76.5 152.5,76.5 162.5,76.5C 182.279,78.4437 194.446,89.1103 199,108.5C 199.5,116.827 199.666,125.16 199.5,133.5C 211.227,134.115 217.56,140.282 218.5,152C 216.882,163.119 210.549,169.285 199.5,170.5C 201.894,195.9 190.894,211.734 166.5,218C 137.5,218.667 108.5,218.667 79.5,218C 55.8209,211.188 45.1543,195.354 47.5,170.5C 36.4509,169.285 30.1175,163.119 28.5,152C 29.4473,140.255 35.7806,134.088 47.5,133.5C 47.2048,123.455 47.7048,113.455 49,103.5C 54.4709,88.5224 64.9709,79.5224 80.5,76.5C 91.8333,76.5 103.167,76.5 114.5,76.5C 114.818,71.9677 114.485,67.6344 113.5,63.5C 103.815,56.2659 101.981,47.2659 108,36.5C 116.198,27.4128 125.364,26.2462 135.5,33C 145.285,43.8815 144.618,54.0482 133.5,63.5 Z"/></g>
<g><path style="opacity:1" fill="#979797" d="M 113.5,63.5 C 114.485,67.6344 114.818,71.9677 114.5,76.5C 103.167,76.5 91.8333,76.5 80.5,76.5C 91.3206,75.5054 102.321,75.1721 113.5,75.5C 113.5,71.5 113.5,67.5 113.5,63.5 Z"/></g>
<g><path style="opacity:1" fill="#949494" d="M 133.5,63.5 C 133.5,67.5 133.5,71.5 133.5,75.5C 143.348,75.1729 153.014,75.5062 162.5,76.5C 152.5,76.5 142.5,76.5 132.5,76.5C 132.182,71.9677 132.515,67.6344 133.5,63.5 Z"/></g>
<g><path style="opacity:1" fill="#fbfbfb" d="M 81.5,94.5 C 109.502,94.3334 137.502,94.5 165.5,95C 173,97.1667 177.833,102 180,109.5C 180.667,134.833 180.667,160.167 180,185.5C 177.406,192.428 172.573,196.928 165.5,199C 137.167,199.667 108.833,199.667 80.5,199C 74,196.5 69.5,192 67,185.5C 66.3333,160.167 66.3333,134.833 67,109.5C 67.8061,106.554 69.1395,103.888 71,101.5C 74.3075,98.7711 77.8075,96.4377 81.5,94.5 Z"/></g>
<g><path style="opacity:1" fill="#2e2e2e" d="M 94.5,114.5 C 107.187,112.702 113.354,118.035 113,130.5C 112.5,131 112,131.5 111.5,132C 103.5,132.667 95.5,132.667 87.5,132C 84.9284,128.181 85.0951,124.348 88,120.5C 90.0627,118.266 92.2294,116.266 94.5,114.5 Z"/></g>
<g><path style="opacity:1" fill="#2e2e2e" d="M 141.5,114.5 C 150.847,112.423 157.347,115.756 161,124.5C 161.944,127.347 161.444,129.847 159.5,132C 151.5,132.667 143.5,132.667 135.5,132C 133.496,129.159 132.996,125.993 134,122.5C 136.028,119.308 138.528,116.641 141.5,114.5 Z"/></g>
<g><path style="opacity:1" fill="#2d2d2d" d="M 100.5,152.5 C 115.837,152.333 131.17,152.5 146.5,153C 151.22,156.298 152.72,160.798 151,166.5C 149.564,172.87 145.731,177.037 139.5,179C 129.561,180.562 119.561,180.895 109.5,180C 98.8125,176.295 94.3125,168.795 96,157.5C 97.3657,155.638 98.8657,153.972 100.5,152.5 Z"/></g>
</svg>
