<?xml version="1.0" standalone="no"?><!DOCTYPE svg PUBLIC "-//W3C//DTD SVG 1.1//EN" "http://www.w3.org/Graphics/SVG/1.1/DTD/svg11.dtd"><svg height="1024" node-id="1" sillyvg="true" template-height="1024" template-width="1927" version="1.1" viewBox="0 0 1927 1024" width="1927" xmlns="http://www.w3.org/2000/svg" xmlns:xlink="http://www.w3.org/1999/xlink"><defs node-id="57"></defs><path d="M 361.60 126.00 L 1386.70 126.00 L 1390.30 126.20 L 1393.60 126.90 L 1396.80 128.00 L 1399.80 129.50 L 1402.60 131.40 L 1405.10 133.60 L 1407.30 136.10 L 1409.20 138.90 L 1410.70 141.90 L 1411.80 145.10 L 1412.50 148.50 L 1412.80 152.00 L 1412.80 841.60 L 1412.50 845.10 L 1411.80 848.50 L 1410.70 851.70 L 1409.20 854.70 L 1407.30 857.50 L 1402.60 862.20 L 1399.80 864.00 L 1396.80 865.60 L 1393.60 866.70 L 1390.30 867.40 L 1386.70 867.60 L 361.60 867.60 L 358.00 867.40 L 354.70 866.70 L 351.50 865.60 L 348.50 864.00 L 345.70 862.20 L 343.20 860.00 L 341.00 857.50 L 339.10 854.70 L 337.60 851.70 L 336.50 848.50 L 335.80 845.10 L 335.50 841.60 L 335.50 152.00 L 335.80 148.50 L 336.50 145.10 L 337.60 141.90 L 339.10 138.90 L 341.00 136.10 L 343.20 133.60 L 345.70 131.40 L 348.50 129.50 L 351.50 128.00 L 354.70 126.90 L 358.00 126.20 L 361.60 126.00 Z" fill="#ffffff" fill-rule="nonzero" node-id="59" stroke="#000000" stroke-linecap="butt" stroke-width="14" target-height="741.6" target-width="1077.3" target-x="335.5" target-y="126"></path><path d="M 348.60 766.60 L 1394.30 766.60 L 1398.80 767.50 L 1402.70 769.70 L 1405.50 773.10 L 1406.50 775.10 L 1407.10 777.30 L 1407.30 779.70 L 1407.30 850.30 L 1407.10 852.60 L 1406.50 854.80 L 1405.50 856.80 L 1402.70 860.20 L 1398.80 862.50 L 1396.70 863.10 L 1394.30 863.30 L 348.60 863.30 L 346.20 863.10 L 344.00 862.50 L 342.00 861.50 L 338.60 858.60 L 336.40 854.80 L 335.80 852.60 L 335.50 850.30 L 335.50 779.70 L 335.80 777.30 L 336.40 775.10 L 337.30 773.10 L 340.20 769.70 L 344.00 767.50 L 346.20 766.90 L 348.60 766.60 Z" fill="#315bf4" fill-rule="nonzero" node-id="61" stroke="none" target-height="96.70001" target-width="1071.8" target-x="335.5" target-y="766.6"></path><path d="M 396.00 179.90 L 398.50 179.70 L 400.70 179.10 L 402.70 178.10 L 406.20 175.20 L 408.50 171.30 L 409.10 169.00 L 409.30 166.60 L 409.10 164.20 L 408.50 162.00 L 406.20 158.10 L 402.70 155.20 L 400.70 154.20 L 398.50 153.60 L 396.00 153.40 L 393.60 153.60 L 391.40 154.20 L 387.50 156.50 L 384.60 159.90 L 383.60 162.00 L 383.00 164.20 L 382.80 166.60 L 383.00 169.00 L 383.60 171.30 L 384.60 173.30 L 387.50 176.80 L 391.40 179.10 L 393.60 179.70 L 396.00 179.90 Z" fill="#ff3f08" fill-rule="nonzero" node-id="63" stroke="none" target-height="26.5" target-width="26.5" target-x="382.8" target-y="153.4"></path><path d="M 435.10 180.50 L 437.60 180.30 L 439.80 179.70 L 443.70 177.40 L 446.60 174.00 L 447.60 171.90 L 448.20 169.70 L 448.40 167.30 L 448.20 164.90 L 447.60 162.70 L 445.30 158.70 L 441.80 155.80 L 439.80 154.90 L 437.60 154.30 L 435.10 154.00 L 432.70 154.30 L 430.50 154.90 L 426.60 157.20 L 423.70 160.60 L 422.70 162.70 L 422.10 164.90 L 421.90 167.30 L 422.10 169.70 L 422.70 171.90 L 423.70 174.00 L 426.60 177.40 L 430.50 179.70 L 432.70 180.30 L 435.10 180.50 Z" fill="#ff3f08" fill-rule="nonzero" node-id="65" stroke="none" target-height="26.5" target-width="26.5" target-x="421.9" target-y="154"></path><path d="M 477.60 180.50 L 480.00 180.30 L 482.20 179.70 L 486.10 177.40 L 489.00 174.00 L 490.00 171.90 L 490.60 169.70 L 490.80 167.30 L 490.60 164.90 L 490.00 162.70 L 487.70 158.70 L 484.30 155.80 L 482.20 154.90 L 480.00 154.30 L 477.60 154.00 L 475.10 154.30 L 472.90 154.90 L 469.00 157.20 L 466.10 160.60 L 465.10 162.70 L 464.50 164.90 L 464.30 167.30 L 464.50 169.70 L 465.10 171.90 L 467.40 175.80 L 470.90 178.70 L 472.90 179.70 L 475.10 180.30 L 477.60 180.50 Z" fill="#ff3f08" fill-rule="nonzero" node-id="67" stroke="none" target-height="26.5" target-width="26.5" target-x="464.3" target-y="154"></path><path d="M 874.10 844.80 L 877.70 844.60 L 881.10 843.90 L 884.30 842.80 L 887.30 841.30 L 890.10 839.40 L 892.60 837.20 L 894.80 834.70 L 896.60 831.90 L 898.20 828.90 L 899.30 825.70 L 900.00 822.30 L 900.20 818.80 L 900.00 815.20 L 899.30 811.80 L 898.20 808.60 L 896.60 805.60 L 894.80 802.80 L 892.60 800.30 L 890.10 798.10 L 887.30 796.30 L 884.30 794.80 L 881.10 793.60 L 877.70 793.00 L 874.10 792.70 L 870.60 793.00 L 867.20 793.60 L 864.00 794.80 L 861.00 796.30 L 858.20 798.10 L 855.70 800.30 L 853.50 802.80 L 851.70 805.60 L 850.10 808.60 L 849.00 811.80 L 848.30 815.20 L 848.10 818.80 L 848.30 822.30 L 849.00 825.70 L 850.10 828.90 L 851.70 831.90 L 853.50 834.70 L 855.70 837.20 L 858.20 839.40 L 861.00 841.30 L 864.00 842.80 L 867.20 843.90 L 870.60 844.60 L 874.10 844.80 Z" fill="#ffffff" fill-rule="nonzero" node-id="69" stroke="none" target-height="52.099976" target-width="52.100037" target-x="848.1" target-y="792.7"></path><path d="M 1412.80 199.80 L 335.50 199.80 L 335.50 212.80 L 1412.80 212.80 L 1412.80 199.80 Z" fill="#000000" fill-rule="nonzero" node-id="71" stroke="none" target-height="13" target-width="1077.3" target-x="335.5" target-y="199.8"></path><path d="M 759.00 872.00 L 760.30 883.50 L 761.40 902.10 L 761.00 916.50 L 760.40 923.60 L 759.20 930.40 L 757.70 936.60 L 756.20 940.50 L 754.60 943.80 L 751.00 948.60 L 749.20 950.20 L 744.90 952.30" fill="none" node-id="73" stroke="#000000" stroke-linecap="butt" stroke-width="14" target-height="80.29999" target-width="16.5" target-x="744.9" target-y="872"></path><path d="M 1030.70 867.60 L 1029.40 879.10 L 1028.40 897.80 L 1028.70 912.20 L 1029.40 919.20 L 1030.50 926.10 L 1032.10 932.20 L 1033.50 936.10 L 1035.10 939.50 L 1038.70 944.30 L 1040.60 945.90 L 1044.80 948.00" fill="none" node-id="75" stroke="#000000" stroke-linecap="butt" stroke-width="14" target-height="80.400024" target-width="16.400024" target-x="1028.4" target-y="867.6"></path><path d="M 1129.30 1004.50 L 683.00 1004.50 L 680.70 1004.20 L 678.50 1003.60 L 676.50 1002.70 L 673.10 999.80 L 670.80 996.00 L 670.00 991.40 L 683.10 971.90 L 690.10 962.50 L 696.70 955.20 L 698.80 953.50 L 701.50 952.30 L 1110.90 952.30 L 1113.60 953.50 L 1115.70 955.20 L 1122.20 962.50 L 1129.30 971.90 L 1142.40 991.40 L 1142.10 993.80 L 1141.50 996.00 L 1139.30 999.80 L 1137.70 1001.40 L 1135.90 1002.70 L 1133.90 1003.60 L 1129.30 1004.50 Z" fill="none" node-id="77" stroke="#000000" stroke-linecap="butt" stroke-width="14" target-height="52.200012" target-width="472.40002" target-x="670" target-y="952.3"></path><path d="M 432.70 299.20 L 807.40 299.20 L 809.70 299.40 L 811.90 300.00 L 815.80 302.20 L 818.60 305.60 L 819.60 307.70 L 820.40 312.20 L 820.20 315.60 L 819.60 317.80 L 817.30 321.70 L 813.90 324.50 L 811.90 325.50 L 809.70 326.10 L 807.40 326.30 L 432.70 326.30 L 430.40 326.10 L 428.20 325.50 L 426.20 324.50 L 422.80 321.70 L 420.50 317.80 L 419.90 315.60 L 419.70 313.30 L 419.90 309.80 L 420.50 307.70 L 422.80 303.80 L 426.20 300.90 L 428.20 300.00 L 430.40 299.40 L 432.70 299.20 Z" fill="#398cff" fill-rule="nonzero" node-id="79" stroke="none" target-height="27.099976" target-width="400.7" target-x="419.7" target-y="299.2"></path><path d="M 432.70 388.20 L 667.80 388.20 L 670.20 388.40 L 672.40 389.00 L 674.40 390.00 L 677.80 392.80 L 680.00 396.70 L 680.60 398.90 L 680.90 401.20 L 680.60 404.70 L 680.00 406.90 L 677.80 410.70 L 674.40 413.60 L 672.40 414.50 L 670.20 415.10 L 667.80 415.40 L 432.70 415.40 L 430.40 415.10 L 428.20 414.50 L 426.20 413.60 L 422.80 410.70 L 420.50 406.90 L 419.90 404.70 L 419.70 401.20 L 420.50 396.70 L 421.50 394.70 L 424.30 391.30 L 428.20 389.00 L 432.70 388.20 Z" fill="#315bf4" fill-rule="nonzero" node-id="81" stroke="none" target-height="27.199982" target-width="261.2" target-x="419.7" target-y="388.2"></path><path d="M 433.30 476.70 L 843.70 476.70 L 846.10 476.90 L 848.30 477.50 L 850.30 478.50 L 853.70 481.30 L 856.00 485.20 L 856.80 489.70 L 856.50 493.20 L 856.00 495.40 L 853.70 499.20 L 850.30 502.10 L 848.30 503.00 L 846.10 503.60 L 843.70 503.90 L 433.30 503.90 L 430.90 503.60 L 428.70 503.00 L 424.90 500.80 L 422.00 497.40 L 421.10 495.40 L 420.50 493.20 L 420.20 490.80 L 420.50 487.40 L 421.10 485.20 L 423.30 481.30 L 426.70 478.50 L 428.70 477.50 L 430.90 476.90 L 433.30 476.70 Z" fill="#315bf4" fill-rule="nonzero" node-id="83" stroke="none" target-height="27.199982" target-width="436.59998" target-x="420.2" target-y="476.7"></path><path d="M 634.20 581.00 L 792.70 581.00 L 794.50 581.20 L 796.00 581.80 L 797.30 582.90 L 798.30 584.20 L 799.00 585.70 L 799.20 587.50 L 799.00 589.20 L 798.30 590.70 L 797.30 592.10 L 796.00 593.10 L 794.50 593.70 L 792.70 594.00 L 634.20 594.00 L 632.40 593.70 L 630.90 593.10 L 629.60 592.10 L 628.50 590.70 L 627.90 589.20 L 627.60 587.50 L 627.90 585.70 L 628.50 584.20 L 629.60 582.90 L 630.90 581.80 L 632.40 581.20 L 634.20 581.00 Z" fill="#315bf4" fill-rule="nonzero" node-id="85" stroke="none" target-height="13" target-width="171.60004" target-x="627.6" target-y="581"></path><path d="M 635.20 615.70 L 730.80 615.70 L 732.60 616.00 L 734.10 616.60 L 735.40 617.60 L 736.40 618.90 L 737.10 620.50 L 737.30 622.20 L 737.10 624.00 L 736.40 625.50 L 735.40 626.80 L 734.10 627.80 L 732.60 628.50 L 730.80 628.70 L 635.20 628.70 L 633.50 628.50 L 632.00 627.80 L 630.60 626.80 L 629.60 625.50 L 629.00 624.00 L 628.70 622.20 L 629.00 620.50 L 629.60 618.90 L 630.60 617.60 L 632.00 616.60 L 633.50 616.00 L 635.20 615.70 Z" fill="#398cff" fill-rule="nonzero" node-id="87" stroke="none" target-height="13" target-width="108.599976" target-x="628.7" target-y="615.7"></path><path d="M 636.30 693.90 L 731.90 693.90 L 733.70 694.10 L 735.20 694.80 L 736.50 695.80 L 737.50 697.10 L 738.20 698.60 L 738.40 700.40 L 738.20 702.20 L 737.50 703.70 L 736.50 705.00 L 735.20 706.00 L 733.70 706.70 L 731.90 706.90 L 636.30 706.90 L 634.60 706.70 L 633.10 706.00 L 631.70 705.00 L 630.70 703.70 L 630.10 702.20 L 629.80 700.40 L 630.10 698.60 L 630.70 697.10 L 631.70 695.80 L 633.10 694.80 L 634.60 694.10 L 636.30 693.90 Z" fill="#398cff" fill-rule="nonzero" node-id="89" stroke="none" target-height="13" target-width="108.60004" target-x="629.8" target-y="693.9"></path><path d="M 634.20 655.90 L 820.90 655.90 L 822.70 656.10 L 824.20 656.80 L 825.50 657.80 L 826.60 659.10 L 827.20 660.60 L 827.50 662.40 L 827.20 664.20 L 826.60 665.70 L 825.50 667.00 L 824.20 668.00 L 822.70 668.70 L 820.90 668.90 L 634.20 668.90 L 632.40 668.70 L 630.90 668.00 L 629.60 667.00 L 628.50 665.70 L 627.90 664.20 L 627.60 662.40 L 627.90 660.60 L 628.50 659.10 L 629.60 657.80 L 630.90 656.80 L 632.40 656.10 L 634.20 655.90 Z" fill="#398cff" fill-rule="nonzero" node-id="91" stroke="none" target-height="13" target-width="199.90002" target-x="627.6" target-y="655.9"></path><path d="M 449.60 565.80 L 589.60 565.80 L 592.00 566.00 L 594.20 566.60 L 596.20 567.50 L 599.60 570.40 L 601.90 574.20 L 602.70 578.80 L 602.70 705.80 L 601.90 710.40 L 599.60 714.20 L 596.20 717.10 L 592.00 718.60 L 589.60 718.90 L 449.60 718.90 L 447.20 718.60 L 445.00 718.00 L 443.00 717.10 L 439.60 714.20 L 437.30 710.40 L 436.80 708.20 L 436.50 705.80 L 436.50 578.80 L 436.80 576.40 L 437.30 574.20 L 438.30 572.20 L 441.20 568.80 L 445.00 566.60 L 447.20 566.00 L 449.60 565.80 Z" fill="none" node-id="93" stroke="#ff3f08" stroke-linecap="butt" stroke-width="10" target-height="153.10004" target-width="166.20001" target-x="436.5" target-y="565.8"></path><path d="M 518.00 638.50 L 521.40 638.30 L 524.60 637.60 L 527.70 636.50 L 530.60 635.10 L 533.20 633.30 L 535.60 631.20 L 537.70 628.80 L 539.50 626.20 L 541.00 623.30 L 542.10 620.20 L 542.70 617.00 L 542.90 613.50 L 542.70 610.10 L 542.10 606.90 L 541.00 603.80 L 539.50 600.90 L 537.70 598.30 L 535.60 595.90 L 533.20 593.80 L 530.60 592.00 L 527.70 590.50 L 524.60 589.40 L 521.40 588.80 L 518.00 588.60 L 514.50 588.80 L 511.30 589.40 L 508.30 590.50 L 505.40 592.00 L 502.70 593.80 L 500.30 595.90 L 498.20 598.30 L 496.40 600.90 L 495.00 603.80 L 493.90 606.90 L 493.20 610.10 L 493.00 613.50 L 493.20 617.00 L 493.90 620.20 L 495.00 623.30 L 496.40 626.20 L 498.20 628.80 L 500.30 631.20 L 502.70 633.30 L 505.40 635.10 L 508.30 636.50 L 511.30 637.60 L 514.50 638.30 L 518.00 638.50 Z" fill="#ff3f08" fill-rule="nonzero" node-id="95" stroke="none" target-height="49.900024" target-width="49.900024" target-x="493" target-y="588.6"></path><path d="M 476.70 701.50 L 477.30 689.20 L 479.30 677.20 L 481.80 668.50 L 483.50 664.20 L 485.50 659.90 L 488.00 656.00 L 490.80 652.30 L 493.20 649.70 L 498.80 645.50 L 502.00 643.70 L 505.40 642.40 L 509.10 641.40 L 513.30 640.80 L 518.00 640.70 L 522.60 641.10 L 526.80 641.80 L 530.50 642.90 L 533.80 644.40 L 536.90 646.20 L 542.30 650.60 L 544.50 653.20 L 547.10 656.90 L 549.30 660.90 L 551.20 665.10 L 552.70 669.40 L 554.70 677.90 L 556.00 689.60 L 556.00 701.50 L 476.70 701.50 Z" fill="#ff3f08" fill-rule="nonzero" node-id="97" stroke="none" target-height="60.799988" target-width="79.29999" target-x="476.7" target-y="640.7"></path><path d="M 1155.40 316.00 L 943.60 316.00 L 942.50 315.80 L 940.60 314.70 L 939.50 312.80 L 939.30 311.70 L 939.90 309.50 L 941.50 307.90 L 942.50 307.50 L 1155.40 307.30 L 1156.60 307.50 L 1158.50 308.60 L 1159.60 310.50 L 1159.70 311.70 L 1159.60 312.80 L 1158.50 314.70 L 1156.60 315.80 L 1155.40 316.00 Z" fill="#d2e9fe" fill-rule="nonzero" node-id="99" stroke="none" target-height="8.700012" target-width="220.39996" target-x="939.3" target-y="307.3"></path><path d="M 1155.40 369.20 L 943.60 369.20 L 942.50 369.00 L 940.60 367.90 L 939.50 366.00 L 939.30 364.90 L 939.90 362.70 L 941.50 361.10 L 942.50 360.70 L 1155.40 360.50 L 1156.60 360.70 L 1158.50 361.80 L 1159.60 363.70 L 1159.70 364.90 L 1159.60 366.00 L 1158.50 367.90 L 1156.60 369.00 L 1155.40 369.20 Z" fill="#d2e9fe" fill-rule="nonzero" node-id="101" stroke="none" target-height="8.700012" target-width="220.39996" target-x="939.3" target-y="360.5"></path><path d="M 1155.40 426.80 L 943.60 426.80 L 942.50 426.60 L 940.60 425.50 L 939.50 423.60 L 939.30 422.40 L 939.50 421.20 L 940.60 419.30 L 942.50 418.20 L 943.60 418.10 L 1155.40 418.10 L 1156.60 418.20 L 1158.50 419.30 L 1159.60 421.20 L 1159.70 422.40 L 1159.60 423.60 L 1158.50 425.50 L 1156.60 426.60 L 1155.40 426.80 Z" fill="#d2e9fe" fill-rule="nonzero" node-id="103" stroke="none" target-height="8.699982" target-width="220.39996" target-x="939.3" target-y="418.1"></path><path d="M 1066.40 722.10 L 1074.50 721.80 L 1082.50 721.00 L 1090.30 719.70 L 1097.80 717.90 L 1105.30 715.60 L 1112.50 712.80 L 1119.40 709.60 L 1126.10 706.00 L 1132.50 701.90 L 1138.70 697.50 L 1144.50 692.60 L 1150.00 687.50 L 1155.20 681.90 L 1160.00 676.10 L 1164.50 670.00 L 1168.60 663.50 L 1172.20 656.80 L 1175.40 649.90 L 1178.20 642.70 L 1180.50 635.20 L 1182.30 627.70 L 1183.60 619.90 L 1184.40 611.90 L 1184.70 603.80 L 1184.40 595.60 L 1183.60 587.60 L 1182.30 579.90 L 1180.50 572.30 L 1178.20 564.80 L 1175.40 557.60 L 1172.20 550.70 L 1168.60 544.00 L 1164.50 537.60 L 1160.00 531.40 L 1155.20 525.60 L 1150.00 520.10 L 1144.50 514.90 L 1138.70 510.10 L 1132.50 505.60 L 1126.10 501.60 L 1119.40 497.90 L 1112.50 494.70 L 1105.30 491.90 L 1097.80 489.60 L 1090.30 487.80 L 1082.50 486.50 L 1074.50 485.70 L 1066.40 485.40 L 1058.20 485.70 L 1050.20 486.50 L 1042.40 487.80 L 1034.90 489.60 L 1027.40 491.90 L 1020.20 494.70 L 1013.30 497.90 L 1006.60 501.60 L 1000.20 505.60 L 994.00 510.10 L 988.20 514.90 L 982.70 520.10 L 977.50 525.60 L 972.70 531.40 L 968.20 537.60 L 964.10 544.00 L 960.50 550.70 L 957.30 557.60 L 954.50 564.80 L 952.20 572.30 L 950.40 579.90 L 949.10 587.60 L 948.30 595.60 L 948.00 603.80 L 948.30 611.90 L 949.10 619.90 L 950.40 627.70 L 952.20 635.20 L 954.50 642.70 L 957.30 649.90 L 960.50 656.80 L 964.10 663.50 L 968.20 670.00 L 972.70 676.10 L 977.50 681.90 L 982.70 687.50 L 988.20 692.60 L 994.00 697.50 L 1000.20 701.90 L 1006.60 706.00 L 1013.30 709.60 L 1020.20 712.80 L 1027.40 715.60 L 1034.90 717.90 L 1042.40 719.70 L 1050.20 721.00 L 1058.20 721.80 L 1066.40 722.10 Z" fill="#315bf4" fill-rule="nonzero" node-id="105" stroke="none" target-height="236.69998" target-width="236.69995" target-x="948" target-y="485.4"></path><path d="M 1066.10 604.70 L 1176.80 691.70 L 1181.60 685.20 L 1186.00 678.50 L 1190.00 671.70 L 1193.50 664.60 L 1196.70 657.30 L 1199.40 649.90 L 1201.80 642.30 L 1203.70 634.60 L 1205.10 626.80 L 1206.20 618.90 L 1206.80 611.00 L 1206.90 603.00 L 1206.60 595.00 L 1205.80 587.00 L 1204.50 579.00 L 1202.80 571.00 L 1200.60 563.10 L 1197.90 555.30 L 1194.70 547.50 L 1191.00 539.80 L 1187.60 533.50 L 1066.10 604.70 Z" fill="#1e294a" fill-rule="nonzero" node-id="107" stroke="none" target-height="158.20001" target-width="140.80005" target-x="1066.1" target-y="533.5"></path><path d="M 1066.40 603.80 L 1181.00 574.10 L 1177.00 561.60 L 1174.40 555.40 L 1171.40 549.20 L 1167.10 541.70 L 1162.50 534.70 L 1157.50 528.20 L 1152.00 522.10 L 1146.20 516.30 L 1140.00 511.10 L 1133.60 506.30 L 1126.90 502.00 L 1119.80 498.20 L 1112.60 494.80 L 1105.20 492.00 L 1097.60 489.60 L 1089.90 487.80 L 1082.00 486.40 L 1074.10 485.60 L 1066.10 485.40 L 1066.40 603.80 Z" fill="#ff3f08" fill-rule="nonzero" node-id="109" stroke="none" target-height="118.399994" target-width="114.900024" target-x="1066.1" target-y="485.4"></path><path d="M 1171.40 549.20 L 1168.50 543.90 L 1066.40 603.80 L 1181.00 574.10 L 1177.00 561.60 L 1171.40 549.20 Z" fill="#ffffff" fill-rule="nonzero" node-id="111" stroke="none" target-height="59.899963" target-width="114.599976" target-x="1066.4" target-y="543.9"></path><path d="M 1179.30 495.20 L 1175.90 494.90 L 1172.80 494.00 L 1170.00 492.60 L 1167.40 490.80 L 1165.20 488.60 L 1163.30 486.00 L 1162.00 483.20 L 1161.10 480.10 L 1160.80 476.70 L 1160.80 26.10 L 1161.10 22.70 L 1162.00 19.60 L 1163.30 16.80 L 1165.20 14.20 L 1167.40 12.00 L 1170.00 10.10 L 1172.80 8.80 L 1175.90 7.90 L 1179.30 7.60 L 1900.30 7.60 L 1903.70 7.90 L 1906.80 8.80 L 1909.60 10.10 L 1912.20 12.00 L 1914.40 14.20 L 1916.30 16.80 L 1917.60 19.60 L 1918.50 22.70 L 1918.80 26.10 L 1918.80 476.70 L 1918.50 480.10 L 1917.60 483.20 L 1916.30 486.00 L 1914.40 488.60 L 1912.20 490.80 L 1909.60 492.60 L 1906.80 494.00 L 1903.70 494.90 L 1900.30 495.20 L 1179.30 495.20 Z" fill="#ffffff" fill-rule="nonzero" node-id="113" stroke="none" target-height="487.6" target-width="758" target-x="1160.8" target-y="7.6"></path><path d="M 1900.30 15.20 L 1904.10 15.90 L 1907.30 17.80 L 1909.70 20.60 L 1910.50 22.30 L 1911.20 26.10 L 1911.20 476.70 L 1910.50 480.50 L 1909.70 482.20 L 1907.30 485.00 L 1904.10 486.90 L 1900.30 487.60 L 1179.30 487.60 L 1175.50 486.90 L 1173.80 486.10 L 1171.00 483.70 L 1169.10 480.50 L 1168.40 476.70 L 1168.40 26.10 L 1168.60 24.10 L 1169.90 20.60 L 1171.00 19.10 L 1173.80 16.70 L 1177.30 15.40 L 1179.30 15.20 L 1900.30 15.20 Z M 1900.30 0.00 L 1179.30 0.00 L 1175.70 0.20 L 1172.40 0.90 L 1169.20 2.10 L 1166.10 3.60 L 1163.40 5.40 L 1160.90 7.70 L 1158.70 10.20 L 1156.80 12.90 L 1155.30 15.90 L 1154.20 19.10 L 1153.50 22.50 L 1153.20 26.10 L 1153.20 476.70 L 1153.50 480.30 L 1154.20 483.60 L 1155.30 486.80 L 1156.80 489.90 L 1158.70 492.60 L 1160.90 495.10 L 1163.40 497.30 L 1166.10 499.20 L 1169.20 500.70 L 1172.40 501.80 L 1175.70 502.50 L 1179.30 502.80 L 1900.30 502.80 L 1903.90 502.50 L 1907.20 501.80 L 1910.40 500.70 L 1913.50 499.20 L 1916.20 497.30 L 1918.70 495.10 L 1920.90 492.60 L 1922.80 489.90 L 1924.30 486.80 L 1925.40 483.60 L 1926.10 480.30 L 1926.40 476.70 L 1926.40 26.10 L 1926.10 22.50 L 1925.40 19.10 L 1924.30 15.90 L 1922.80 12.90 L 1920.90 10.20 L 1918.70 7.70 L 1916.20 5.40 L 1913.50 3.60 L 1910.40 2.10 L 1907.20 0.90 L 1903.90 0.20 L 1900.30 0.00 Z" fill="#000000" fill-rule="nonzero" node-id="115" stroke="none" target-height="502.8" target-width="773.2001" target-x="1153.2" target-y="0"></path><path d="M 1926.40 82.50 L 1159.70 82.50 L 1159.70 95.60 L 1926.40 95.60 L 1926.40 82.50 Z" fill="#000000" fill-rule="nonzero" node-id="117" stroke="none" target-height="13.099998" target-width="766.7001" target-x="1159.7" target-y="82.5"></path><path d="M 1210.50 59.30 L 1212.90 59.10 L 1215.10 58.50 L 1217.20 57.50 L 1220.60 54.60 L 1222.90 50.70 L 1223.50 48.50 L 1223.70 46.10 L 1223.50 43.70 L 1222.90 41.50 L 1220.60 37.50 L 1217.20 34.60 L 1215.10 33.70 L 1212.90 33.10 L 1210.50 32.80 L 1208.00 33.10 L 1205.80 33.70 L 1201.90 36.00 L 1199.00 39.40 L 1198.00 41.50 L 1197.40 43.70 L 1197.20 46.10 L 1197.40 48.50 L 1198.00 50.70 L 1200.30 54.60 L 1203.80 57.50 L 1205.80 58.50 L 1208.00 59.10 L 1210.50 59.30 Z" fill="#ff3f08" fill-rule="nonzero" node-id="119" stroke="none" target-height="26.5" target-width="26.5" target-x="1197.2" target-y="32.8"></path><path d="M 1249.60 60.00 L 1252.00 59.80 L 1254.20 59.20 L 1258.10 56.90 L 1261.00 53.40 L 1262.00 51.40 L 1262.60 49.20 L 1262.80 46.80 L 1262.60 44.30 L 1262.00 42.10 L 1261.00 40.10 L 1258.10 36.60 L 1254.20 34.30 L 1252.00 33.70 L 1249.60 33.50 L 1247.10 33.70 L 1244.90 34.30 L 1241.00 36.60 L 1238.10 40.10 L 1237.10 42.10 L 1236.50 44.30 L 1236.30 46.80 L 1236.50 49.20 L 1237.10 51.40 L 1238.10 53.40 L 1241.00 56.90 L 1244.90 59.20 L 1247.10 59.80 L 1249.60 60.00 Z" fill="#ff3f08" fill-rule="nonzero" node-id="121" stroke="none" target-height="26.5" target-width="26.5" target-x="1236.3" target-y="33.5"></path><path d="M 1292.00 60.00 L 1294.40 59.80 L 1296.60 59.20 L 1298.70 58.20 L 1302.10 55.30 L 1304.40 51.40 L 1305.00 49.20 L 1305.30 46.80 L 1305.00 44.30 L 1304.40 42.10 L 1302.10 38.20 L 1298.70 35.30 L 1296.60 34.30 L 1294.40 33.70 L 1292.00 33.50 L 1289.60 33.70 L 1287.40 34.30 L 1283.40 36.60 L 1280.50 40.10 L 1279.60 42.10 L 1279.00 44.30 L 1278.70 46.80 L 1279.00 49.20 L 1279.60 51.40 L 1281.90 55.30 L 1285.30 58.20 L 1287.40 59.20 L 1289.60 59.80 L 1292.00 60.00 Z" fill="#ff3f08" fill-rule="nonzero" node-id="123" stroke="none" target-height="26.5" target-width="26.600098" target-x="1278.7" target-y="33.5"></path><path d="M 1791.70 155.30 L 1494.20 155.30 L 1490.80 154.70 L 1489.30 153.90 L 1487.30 152.40 L 1485.80 150.40 L 1485.00 148.90 L 1484.40 145.50 L 1485.00 142.10 L 1485.80 140.60 L 1487.30 138.60 L 1489.30 137.10 L 1490.80 136.30 L 1494.20 135.70 L 1791.70 135.70 L 1795.10 136.30 L 1796.60 137.10 L 1798.60 138.60 L 1800.20 140.60 L 1800.90 142.10 L 1801.50 145.50 L 1800.90 148.90 L 1800.20 150.40 L 1798.60 152.40 L 1796.60 153.90 L 1795.10 154.70 L 1791.70 155.30 Z" fill="#398cff" fill-rule="nonzero" node-id="125" stroke="none" target-height="19.600006" target-width="317.09998" target-x="1484.4" target-y="135.7"></path><path d="M 1692.90 199.80 L 1492.40 199.60 L 1489.30 198.50 L 1487.30 196.90 L 1485.80 195.00 L 1485.00 193.40 L 1484.40 190.00 L 1485.00 186.60 L 1485.80 185.10 L 1487.30 183.10 L 1489.30 181.60 L 1490.80 180.90 L 1494.20 180.30 L 1694.70 180.40 L 1697.80 181.60 L 1699.80 183.10 L 1701.40 185.10 L 1702.10 186.60 L 1702.70 190.00 L 1702.10 193.40 L 1701.30 195.00 L 1699.80 196.90 L 1697.80 198.50 L 1696.30 199.20 L 1692.90 199.80 Z" fill="#315bf4" fill-rule="nonzero" node-id="127" stroke="none" target-height="19.5" target-width="218.29993" target-x="1484.4" target-y="180.3"></path><path d="M 1620.20 244.30 L 1492.40 244.20 L 1489.30 243.00 L 1487.30 241.50 L 1485.80 239.50 L 1485.00 238.00 L 1484.40 234.60 L 1485.00 231.10 L 1485.80 229.60 L 1487.30 227.70 L 1489.30 226.10 L 1492.40 224.90 L 1621.90 224.90 L 1625.10 226.10 L 1627.10 227.70 L 1628.60 229.60 L 1629.30 231.10 L 1629.90 234.60 L 1629.30 238.00 L 1628.60 239.50 L 1627.10 241.50 L 1625.10 243.00 L 1623.60 243.70 L 1620.20 244.30 Z" fill="#315bf4" fill-rule="nonzero" node-id="129" stroke="none" target-height="19.40001" target-width="145.5" target-x="1484.4" target-y="224.9"></path><path d="M 1334.60 274.70 L 1341.10 274.50 L 1347.30 273.70 L 1353.40 272.50 L 1359.30 270.70 L 1365.00 268.60 L 1370.50 266.00 L 1375.80 263.00 L 1380.70 259.60 L 1385.50 255.90 L 1389.90 251.80 L 1393.90 247.40 L 1397.70 242.70 L 1401.00 237.70 L 1404.00 232.50 L 1406.60 227.00 L 1408.80 221.30 L 1410.50 215.40 L 1411.70 209.30 L 1412.50 203.00 L 1412.80 196.50 L 1412.50 190.10 L 1411.70 183.80 L 1410.50 177.70 L 1408.80 171.80 L 1406.60 166.10 L 1404.00 160.60 L 1401.00 155.40 L 1397.70 150.40 L 1393.90 145.60 L 1389.90 141.30 L 1385.50 137.20 L 1380.70 133.40 L 1375.80 130.10 L 1370.50 127.10 L 1365.00 124.50 L 1359.30 122.30 L 1353.40 120.60 L 1347.30 119.40 L 1341.10 118.60 L 1334.60 118.40 L 1328.10 118.60 L 1321.80 119.40 L 1315.70 120.60 L 1309.90 122.30 L 1304.10 124.50 L 1298.60 127.10 L 1293.40 130.10 L 1288.40 133.40 L 1283.70 137.20 L 1279.30 141.30 L 1275.20 145.60 L 1271.50 150.40 L 1268.10 155.40 L 1265.10 160.60 L 1262.50 166.10 L 1260.40 171.80 L 1258.70 177.70 L 1257.40 183.80 L 1256.70 190.10 L 1256.40 196.50 L 1256.70 203.00 L 1257.40 209.30 L 1258.70 215.40 L 1260.40 221.30 L 1262.50 227.00 L 1265.10 232.50 L 1268.10 237.70 L 1271.50 242.70 L 1275.20 247.40 L 1279.30 251.80 L 1283.70 255.90 L 1288.40 259.60 L 1293.40 263.00 L 1298.60 266.00 L 1304.10 268.60 L 1309.90 270.70 L 1315.70 272.50 L 1321.80 273.70 L 1328.10 274.50 L 1334.60 274.70 Z" fill="none" node-id="131" stroke="#315bf4" stroke-linecap="butt" stroke-width="12" target-height="156.30002" target-width="156.40002" target-x="1256.4" target-y="118.4"></path><path d="M 1334.60 204.70 L 1338.20 204.40 L 1341.60 203.70 L 1344.80 202.60 L 1347.90 201.10 L 1350.70 199.20 L 1353.20 196.90 L 1355.50 194.40 L 1357.40 191.60 L 1358.90 188.50 L 1360.00 185.30 L 1360.70 181.90 L 1361.00 178.30 L 1360.70 174.60 L 1360.00 171.20 L 1358.90 168.00 L 1357.40 164.90 L 1355.50 162.10 L 1353.20 159.60 L 1350.70 157.40 L 1347.90 155.50 L 1344.80 153.90 L 1341.60 152.80 L 1338.20 152.10 L 1334.60 151.90 L 1330.90 152.10 L 1327.50 152.80 L 1324.30 153.90 L 1321.20 155.50 L 1318.40 157.40 L 1315.90 159.60 L 1313.70 162.10 L 1311.80 164.90 L 1310.20 168.00 L 1309.10 171.20 L 1308.40 174.60 L 1308.20 178.30 L 1308.40 181.90 L 1309.10 185.30 L 1310.20 188.50 L 1311.80 191.60 L 1313.70 194.40 L 1315.90 196.90 L 1318.40 199.20 L 1321.20 201.10 L 1324.30 202.60 L 1327.50 203.70 L 1330.90 204.40 L 1334.60 204.70 Z" fill="none" node-id="133" stroke="#315bf4" stroke-linecap="butt" stroke-width="12" target-height="52.800003" target-width="52.80005" target-x="1308.2" target-y="151.9"></path><path d="M 1295.00 261.50 L 1295.90 251.50 L 1298.10 241.50 L 1299.90 236.20 L 1302.30 230.70 L 1306.70 224.00 L 1309.40 220.80 L 1312.40 218.00 L 1315.90 215.60 L 1319.90 213.60 L 1326.50 211.50 L 1334.60 210.80 L 1342.70 211.50 L 1349.20 213.60 L 1353.20 215.60 L 1356.70 218.00 L 1359.70 220.80 L 1362.40 224.00 L 1366.80 230.70 L 1369.20 236.20 L 1371.10 241.50 L 1373.20 251.50 L 1374.20 261.50" fill="none" node-id="135" stroke="#315bf4" stroke-linecap="butt" stroke-width="12" target-height="50.699997" target-width="79.19995" target-x="1295" target-y="210.8"></path><path d="M 1829.70 440.90 L 1269.40 440.90 L 1267.00 440.70 L 1264.90 440.10 L 1262.80 439.10 L 1259.50 436.20 L 1257.20 432.40 L 1256.40 427.80 L 1256.40 325.80 L 1256.60 323.40 L 1257.20 321.20 L 1259.50 317.40 L 1262.80 314.50 L 1264.90 313.60 L 1269.40 312.70 L 1829.70 312.70 L 1832.10 313.00 L 1836.30 314.50 L 1839.70 317.40 L 1842.00 321.20 L 1842.80 325.80 L 1842.80 427.80 L 1842.00 432.40 L 1839.70 436.20 L 1836.30 439.10 L 1834.30 440.10 L 1829.70 440.90 Z" fill="none" node-id="137" stroke="#d2e9fe" stroke-linecap="butt" stroke-width="10" target-height="128.19998" target-width="586.4" target-x="1256.4" target-y="312.7"></path><path d="M 1327.00 363.80 L 1331.50 363.00 L 1335.40 360.70 L 1338.20 357.30 L 1339.20 355.30 L 1340.00 350.70 L 1339.80 348.40 L 1339.20 346.20 L 1336.90 342.30 L 1333.50 339.50 L 1331.50 338.50 L 1329.30 337.90 L 1327.00 337.70 L 1324.60 337.90 L 1322.40 338.50 L 1318.60 340.80 L 1315.70 344.20 L 1314.70 346.20 L 1314.20 348.40 L 1313.90 350.70 L 1314.20 353.10 L 1314.70 355.30 L 1317.00 359.10 L 1320.40 362.00 L 1322.40 363.00 L 1324.60 363.60 L 1327.00 363.80 Z" fill="#ff3f08" fill-rule="nonzero" node-id="139" stroke="none" target-height="26.099976" target-width="26.099976" target-x="1313.9" target-y="337.7"></path><path d="M 1327.00 407.20 L 1329.30 407.00 L 1331.50 406.40 L 1333.50 405.40 L 1336.90 402.60 L 1339.20 398.70 L 1340.00 394.20 L 1339.80 391.80 L 1339.20 389.60 L 1336.90 385.80 L 1333.50 382.90 L 1329.30 381.40 L 1327.00 381.20 L 1324.60 381.40 L 1322.40 382.00 L 1318.60 384.20 L 1315.70 387.60 L 1314.70 389.60 L 1313.90 394.20 L 1314.70 398.70 L 1317.00 402.60 L 1320.40 405.40 L 1322.40 406.40 L 1327.00 407.20 Z" fill="#ff3f08" fill-rule="nonzero" node-id="141" stroke="none" target-height="26" target-width="26.099976" target-x="1313.9" target-y="381.2"></path><path d="M 1557.20 358.30 L 1378.00 358.30 L 1376.00 358.10 L 1374.20 357.30 L 1372.60 356.10 L 1371.40 354.60 L 1370.70 352.80 L 1370.40 350.70 L 1370.70 348.70 L 1371.40 346.90 L 1372.60 345.40 L 1374.20 344.20 L 1376.00 343.40 L 1378.00 343.10 L 1557.20 343.10 L 1559.20 343.40 L 1561.00 344.20 L 1562.50 345.40 L 1563.70 346.90 L 1564.50 348.70 L 1564.80 350.70 L 1564.50 352.80 L 1563.70 354.60 L 1562.50 356.10 L 1561.00 357.30 L 1559.20 358.10 L 1557.20 358.30 Z" fill="#ff3f08" fill-rule="nonzero" node-id="143" stroke="none" target-height="15.199982" target-width="194.40002" target-x="1370.4" target-y="343.1"></path><path d="M 1679.90 401.80 L 1378.00 401.80 L 1376.00 401.50 L 1374.20 400.70 L 1372.60 399.50 L 1371.40 398.00 L 1370.70 396.20 L 1370.40 394.20 L 1370.70 392.20 L 1371.40 390.40 L 1372.60 388.80 L 1374.20 387.60 L 1376.00 386.90 L 1378.00 386.60 L 1679.90 386.60 L 1681.90 386.90 L 1683.70 387.60 L 1685.20 388.80 L 1686.40 390.40 L 1687.20 392.20 L 1687.50 394.20 L 1687.20 396.20 L 1686.40 398.00 L 1685.20 399.50 L 1683.70 400.70 L 1681.90 401.50 L 1679.90 401.80 Z" fill="#ff3f08" fill-rule="nonzero" node-id="145" stroke="none" target-height="15.199982" target-width="317.09998" target-x="1370.4" target-y="386.6"></path><path d="M 1778.70 401.80 L 1721.20 401.80 L 1719.10 401.50 L 1717.30 400.70 L 1715.80 399.50 L 1714.60 398.00 L 1713.80 396.20 L 1713.50 394.20 L 1713.80 392.20 L 1714.60 390.40 L 1715.80 388.80 L 1717.30 387.60 L 1719.10 386.90 L 1721.20 386.60 L 1778.70 386.60 L 1780.70 386.90 L 1782.50 387.60 L 1784.10 388.80 L 1785.30 390.40 L 1786.00 392.20 L 1786.30 394.20 L 1786.00 396.20 L 1785.30 398.00 L 1784.10 399.50 L 1782.50 400.70 L 1780.70 401.50 L 1778.70 401.80 Z" fill="#ff3f08" fill-rule="nonzero" node-id="147" stroke="none" target-height="15.199982" target-width="72.80005" target-x="1713.5" target-y="386.6"></path><path d="M 1894.90 784.00 L 1894.60 778.40 L 1893.60 772.90 L 1892.00 767.50 L 1889.90 762.40 L 1887.20 757.40 L 1884.00 752.70 L 1880.30 748.40 L 1876.20 744.40 L 1871.70 740.70 L 1866.80 737.50 L 1861.50 734.90 L 1855.80 732.70 L 1846.90 730.50 L 1837.30 729.70 L 1831.60 730.00 L 1825.90 730.90 L 1820.20 732.30 L 1814.60 734.30 L 1809.30 736.70 L 1804.30 739.60 L 1799.50 742.90 L 1795.10 746.60 L 1791.20 750.70 L 1789.70 744.90 L 1787.70 739.40 L 1785.30 734.10 L 1782.40 729.00 L 1779.10 724.20 L 1775.50 719.70 L 1771.50 715.50 L 1767.20 711.70 L 1762.60 708.20 L 1757.70 705.10 L 1752.50 702.50 L 1747.00 700.20 L 1741.40 698.40 L 1735.60 697.10 L 1729.60 696.30 L 1723.30 696.10 L 1717.50 696.30 L 1712.00 697.00 L 1706.60 698.10 L 1701.40 699.60 L 1696.20 701.50 L 1691.40 703.80 L 1686.70 706.50 L 1678.10 712.80 L 1674.20 716.40 L 1670.60 720.30 L 1667.20 724.50 L 1664.20 728.90 L 1661.60 733.60 L 1659.30 738.50 L 1657.40 743.60 L 1655.80 748.80 L 1654.70 754.20 L 1654.10 759.80 L 1653.80 765.60 L 1654.10 772.10 L 1655.00 778.30 L 1656.40 784.30 L 1658.30 790.10 L 1660.70 795.80 L 1663.60 801.10 L 1666.90 806.10 L 1670.60 810.80 L 1674.70 815.20 L 1679.20 819.20 L 1684.00 822.80 L 1692.70 828.70 L 1696.60 830.90 L 1700.70 832.70 L 1705.00 834.00 L 1709.50 834.80 L 1714.30 835.10 L 1848.40 835.10 L 1852.60 834.80 L 1856.60 834.10 L 1860.40 833.00 L 1864.10 831.50 L 1867.60 829.60 L 1875.40 824.10 L 1879.70 820.40 L 1883.50 816.20 L 1886.80 811.60 L 1889.60 806.70 L 1891.90 801.40 L 1894.10 793.00 L 1894.90 784.00 Z" fill="#d2e9fe" fill-rule="nonzero" node-id="149" stroke="none" target-height="139" target-width="241.09998" target-x="1653.8" target-y="696.1"></path><path d="M 26.10 661.00 L 22.70 660.70 L 19.60 659.90 L 16.80 658.50 L 14.20 656.60 L 12.00 654.40 L 10.10 651.80 L 8.80 649.00 L 7.90 645.90 L 7.60 642.50 L 7.60 428.20 L 7.90 424.80 L 8.80 421.70 L 10.10 418.90 L 12.00 416.30 L 14.20 414.10 L 16.80 412.20 L 19.60 410.80 L 22.70 410.00 L 26.10 409.70 L 393.10 409.70 L 396.40 410.00 L 399.50 410.80 L 402.40 412.20 L 405.00 414.10 L 407.20 416.30 L 409.00 418.90 L 410.40 421.70 L 411.20 424.80 L 411.60 428.20 L 411.60 642.50 L 411.20 645.90 L 410.40 649.00 L 409.00 651.80 L 407.20 654.40 L 405.00 656.60 L 402.40 658.50 L 399.50 659.90 L 396.40 660.70 L 393.10 661.00 L 26.10 661.00 Z" fill="#ffffff" fill-rule="nonzero" node-id="151" stroke="none" target-height="251.29999" target-width="404" target-x="7.6" target-y="409.7"></path><path d="M 393.10 417.30 L 396.90 418.00 L 400.10 419.90 L 402.50 422.70 L 403.30 424.40 L 404.00 428.20 L 404.00 642.50 L 403.30 646.30 L 402.50 648.00 L 400.10 650.80 L 396.90 652.70 L 393.10 653.40 L 26.10 653.40 L 22.30 652.70 L 19.10 650.80 L 16.70 648.00 L 15.90 646.30 L 15.20 642.50 L 15.20 428.20 L 15.40 426.20 L 16.70 422.70 L 17.80 421.20 L 20.60 418.80 L 24.10 417.50 L 26.10 417.30 L 393.10 417.30 Z M 393.10 402.10 L 26.10 402.10 L 22.50 402.30 L 19.20 403.00 L 16.00 404.10 L 12.90 405.70 L 10.20 407.50 L 7.70 409.70 L 5.50 412.30 L 3.60 415.00 L 2.10 418.00 L 0.90 421.20 L 0.20 424.60 L 0.00 428.20 L 0.00 642.50 L 0.20 646.10 L 0.90 649.50 L 2.10 652.70 L 3.60 655.70 L 5.50 658.40 L 7.70 660.90 L 10.20 663.20 L 12.90 665.00 L 16.00 666.60 L 19.20 667.70 L 22.50 668.40 L 26.10 668.60 L 393.10 668.60 L 396.60 668.40 L 400.00 667.70 L 403.20 666.60 L 406.20 665.00 L 409.00 663.20 L 411.50 660.90 L 413.70 658.40 L 415.60 655.70 L 417.10 652.70 L 418.20 649.50 L 418.90 646.10 L 419.20 642.50 L 419.20 428.20 L 418.90 424.60 L 418.20 421.20 L 417.10 418.00 L 415.60 415.00 L 413.70 412.30 L 411.50 409.70 L 409.00 407.50 L 406.20 405.70 L 403.20 404.10 L 400.00 403.00 L 396.60 402.30 L 393.10 402.10 Z" fill="#000000" fill-rule="nonzero" node-id="153" stroke="none" target-height="266.49997" target-width="419.2" target-x="0" target-y="402.1"></path><path d="M 79.30 487.60 L 82.20 487.80 L 85.00 488.60 L 87.50 489.80 L 89.80 491.40 L 91.70 493.40 L 93.30 495.70 L 94.50 498.20 L 95.30 500.90 L 95.60 503.90 L 95.60 605.90 L 95.30 608.90 L 94.50 611.60 L 93.30 614.10 L 91.70 616.40 L 89.80 618.40 L 87.50 620.00 L 85.00 621.20 L 82.20 621.90 L 79.30 622.20 L 76.30 621.90 L 73.60 621.20 L 71.10 620.00 L 68.80 618.40 L 66.80 616.40 L 65.20 614.10 L 64.00 611.60 L 63.30 608.90 L 63.00 605.90 L 63.00 503.90 L 63.30 500.90 L 64.00 498.20 L 65.20 495.70 L 66.80 493.40 L 68.80 491.40 L 71.10 489.80 L 73.60 488.60 L 76.30 487.80 L 79.30 487.60 Z" fill="#315bf4" fill-rule="nonzero" node-id="155" stroke="none" target-height="134.6" target-width="32.6" target-x="63" target-y="487.6"></path><path d="M 143.30 439.80 L 146.30 440.10 L 149.00 440.80 L 151.50 442.00 L 153.80 443.60 L 155.80 445.60 L 157.40 447.90 L 158.60 450.40 L 159.30 453.10 L 159.60 456.10 L 159.60 605.90 L 159.30 608.90 L 158.60 611.60 L 157.40 614.10 L 155.80 616.40 L 153.80 618.40 L 151.50 620.00 L 149.00 621.20 L 146.30 621.90 L 143.30 622.20 L 140.40 621.90 L 137.70 621.20 L 135.10 620.00 L 132.80 618.40 L 130.90 616.40 L 129.30 614.10 L 128.10 611.60 L 127.30 608.90 L 127.10 605.90 L 127.10 456.10 L 127.30 453.10 L 128.10 450.40 L 129.30 447.90 L 130.90 445.60 L 132.80 443.60 L 135.10 442.00 L 137.70 440.80 L 140.40 440.10 L 143.30 439.80 Z" fill="#315bf4" fill-rule="nonzero" node-id="157" stroke="none" target-height="182.40002" target-width="32.500008" target-x="127.1" target-y="439.8"></path><path d="M 286.70 524.50 L 289.60 524.80 L 292.40 525.50 L 294.90 526.70 L 297.20 528.30 L 299.10 530.30 L 300.70 532.60 L 301.90 535.10 L 302.70 537.80 L 303.00 540.80 L 303.00 605.90 L 302.70 608.90 L 301.90 611.60 L 300.70 614.10 L 299.10 616.40 L 297.20 618.40 L 294.90 620.00 L 292.40 621.20 L 289.60 621.90 L 286.70 622.20 L 283.70 621.90 L 281.00 621.20 L 278.50 620.00 L 276.20 618.40 L 274.20 616.40 L 272.60 614.10 L 271.40 611.60 L 270.70 608.90 L 270.40 605.90 L 270.40 540.80 L 270.70 537.80 L 271.40 535.10 L 272.60 532.60 L 274.20 530.30 L 276.20 528.30 L 278.50 526.70 L 281.00 525.50 L 283.70 524.80 L 286.70 524.50 Z" fill="#315bf4" fill-rule="nonzero" node-id="159" stroke="none" target-height="97.70001" target-width="32.600006" target-x="270.4" target-y="524.5"></path><path d="M 342.10 487.60 L 345.00 487.80 L 347.70 488.60 L 350.30 489.80 L 352.50 491.40 L 354.50 493.40 L 356.10 495.70 L 357.30 498.20 L 358.10 500.90 L 358.30 503.90 L 358.30 605.90 L 358.10 608.90 L 357.30 611.60 L 356.10 614.10 L 354.50 616.40 L 352.50 618.40 L 350.30 620.00 L 347.70 621.20 L 345.00 621.90 L 342.10 622.20 L 339.10 621.90 L 336.40 621.20 L 333.90 620.00 L 331.60 618.40 L 329.60 616.40 L 328.00 614.10 L 326.80 611.60 L 326.00 608.90 L 325.80 605.90 L 325.80 503.90 L 326.00 500.90 L 326.80 498.20 L 328.00 495.70 L 329.60 493.40 L 331.60 491.40 L 333.90 489.80 L 336.40 488.60 L 339.10 487.80 L 342.10 487.60 Z" fill="#315bf4" fill-rule="nonzero" node-id="161" stroke="none" target-height="134.6" target-width="32.5" target-x="325.8" target-y="487.6"></path><path d="M 216.10 466.90 L 219.10 467.20 L 221.80 468.00 L 224.30 469.20 L 226.60 470.80 L 228.50 472.70 L 230.10 475.00 L 231.40 477.50 L 232.10 480.30 L 232.40 483.20 L 232.40 605.90 L 232.10 608.90 L 231.40 611.60 L 230.10 614.10 L 228.50 616.40 L 226.60 618.40 L 224.30 620.00 L 221.80 621.20 L 219.10 621.90 L 216.10 622.20 L 213.10 621.90 L 210.40 621.20 L 207.90 620.00 L 205.60 618.40 L 203.70 616.40 L 202.00 614.10 L 200.80 611.60 L 200.10 608.90 L 199.80 605.90 L 199.80 483.20 L 200.10 480.30 L 200.80 477.50 L 202.00 475.00 L 203.70 472.70 L 205.60 470.80 L 207.90 469.20 L 210.40 468.00 L 213.10 467.20 L 216.10 466.90 Z" fill="#ff3f08" fill-rule="nonzero" node-id="163" stroke="none" target-height="155.30002" target-width="32.59999" target-x="199.8" target-y="466.9"></path><path d="M 82.50 997.90 L 1860.70 997.90 L 1865.20 998.80 L 1867.20 999.70 L 1870.60 1002.60 L 1872.90 1006.40 L 1873.70 1011.00 L 1873.50 1013.30 L 1872.90 1015.50 L 1870.60 1019.40 L 1867.20 1022.20 L 1863.00 1023.80 L 1860.70 1024.00 L 82.50 1024.00 L 80.10 1023.80 L 77.90 1023.20 L 75.90 1022.20 L 72.50 1019.40 L 70.30 1015.50 L 69.70 1013.30 L 69.50 1011.00 L 69.70 1008.60 L 70.30 1006.40 L 72.50 1002.60 L 75.90 999.70 L 77.90 998.80 L 80.10 998.20 L 82.50 997.90 Z" fill="#000000" fill-rule="nonzero" node-id="165" stroke="none" target-height="26.099976" target-width="1804.2" target-x="69.5" target-y="997.9"></path></svg>