<?xml version="1.0" encoding="UTF-8"?>
<!DOCTYPE svg PUBLIC "-//W3C//DTD SVG 1.1//EN" "http://www.w3.org/Graphics/SVG/1.1/DTD/svg11.dtd">
<svg xmlns="http://www.w3.org/2000/svg" version="1.1" width="250px" height="250px" style="shape-rendering:geometricPrecision; text-rendering:geometricPrecision; image-rendering:optimizeQuality; fill-rule:evenodd; clip-rule:evenodd" xmlns:xlink="http://www.w3.org/1999/xlink">
<g><path style="opacity:0.995" fill="#fefefe" d="M 29.5,-0.5 C 92.8333,-0.5 156.167,-0.5 219.5,-0.5C 236.011,2.34267 246.011,12.0093 249.5,28.5C 249.5,92.5 249.5,156.5 249.5,220.5C 246.271,236.062 236.938,245.729 221.5,249.5C 156.833,249.5 92.1667,249.5 27.5,249.5C 12.0353,245.703 2.70193,236.036 -0.5,220.5C -0.5,156.167 -0.5,91.8333 -0.5,27.5C 3.43867,11.5581 13.4387,2.2248 29.5,-0.5 Z"/></g>
<g><path style="opacity:1" fill="#2c2c2c" d="M 33.5,40.5 C 93.8343,40.3333 154.168,40.5 214.5,41C 217.237,42.6141 219.403,44.7808 221,47.5C 221.667,101.833 221.667,156.167 221,210.5C 219.833,214.333 217.333,216.833 213.5,218C 152.418,218.992 91.4177,218.659 30.5,217C 28.3834,215.269 26.8834,213.102 26,210.5C 25.3333,156.167 25.3333,101.833 26,47.5C 27.7424,44.2543 30.2424,41.921 33.5,40.5 Z"/></g>
<g><path style="opacity:1" fill="#f8f8f8" d="M 138.5,58.5 C 151.403,56.5761 155.903,61.9095 152,74.5C 151.5,75 151,75.5 150.5,76C 137.225,80.0595 132.391,75.2262 136,61.5C 137.045,60.6266 137.878,59.6266 138.5,58.5 Z"/></g>
<g><path style="opacity:1" fill="#f5f5f5" d="M 166.5,58.5 C 178.162,56.9967 182.662,61.9967 180,73.5C 175.178,77.9621 169.845,78.6288 164,75.5C 162.455,70.9534 162.121,66.2867 163,61.5C 164.145,60.3636 165.312,59.3636 166.5,58.5 Z"/></g>
<g><path style="opacity:1" fill="#f5f5f5" d="M 193.5,58.5 C 207.585,57.141 211.585,62.9743 205.5,76C 192.964,80.1352 187.797,75.6352 190,62.5C 191.376,61.2949 192.542,59.9616 193.5,58.5 Z"/></g>
<g><path style="opacity:1" fill="#fdfdfd" d="M 39.5,91.5 C 95.5,91.5 151.5,91.5 207.5,91.5C 207.5,129.167 207.5,166.833 207.5,204.5C 151.5,204.5 95.5,204.5 39.5,204.5C 39.5,166.833 39.5,129.167 39.5,91.5 Z"/></g>
<g><path style="opacity:1" fill="#303030" d="M 128.5,109.5 C 131.216,109.678 133.883,110.178 136.5,111C 137.059,111.725 137.392,112.558 137.5,113.5C 130.674,139.158 123.84,164.824 117,190.5C 114.525,192.752 111.859,192.752 109,190.5C 108.333,188.167 108.333,185.833 109,183.5C 115.566,158.83 122.066,134.163 128.5,109.5 Z"/></g>
<g><path style="opacity:1" fill="#2f2f2f" d="M 99.5,123.5 C 104.121,124.279 106.288,126.945 106,131.5C 99.4553,137.71 93.2886,144.21 87.5,151C 93.2886,157.79 99.4553,164.29 106,170.5C 106.486,174.376 104.819,177.043 101,178.5C 91.1667,170 82,160.833 73.5,151C 81.9928,141.674 90.6594,132.507 99.5,123.5 Z"/></g>
<g><path style="opacity:1" fill="#303030" d="M 144.5,123.5 C 145.552,123.351 146.552,123.517 147.5,124C 156.543,132.708 165.21,141.708 173.5,151C 165,160.833 155.833,170 146,178.5C 142.181,177.043 140.514,174.376 141,170.5C 147.545,164.29 153.711,157.79 159.5,151C 153.378,143.876 146.878,137.043 140,130.5C 139.333,129.833 139.333,129.167 140,128.5C 141.707,126.963 143.207,125.296 144.5,123.5 Z"/></g>
</svg>
