<?xml version="1.0" standalone="no"?><!DOCTYPE svg PUBLIC "-//W3C//DTD SVG 1.1//EN" "http://www.w3.org/Graphics/SVG/1.1/DTD/svg11.dtd"><svg t="1730431645708" class="icon" viewBox="0 0 1024 1024" version="1.1" xmlns="http://www.w3.org/2000/svg" p-id="3678" xmlns:xlink="http://www.w3.org/1999/xlink" width="200" height="200"><path d="M954.4192 50.7904H69.4784c-33.1264 0-60.416 27.0848-60.416 60.4672v792.7808c0 33.1264 27.0848 60.416 60.416 60.416H954.368c33.3824 0 60.5184-27.0336 60.5184-60.416V111.2576A60.416 60.416 0 0 0 954.4192 50.7904z m-242.5344 124.16c0-16.7424 13.4144-30.1568 30.208-30.1568h30.1056c16.4864 0 30.0032 13.4144 30.0032 30.1568v34.1504a30.0544 30.0544 0 0 1-29.9008 30.1568h-30.208a29.9008 29.9008 0 0 1-30.208-29.7472v-34.56z m-140.5952 0a30.208 30.208 0 0 1 30.1056-30.1568h30.1056c16.7936 0 30.208 13.4144 30.208 30.1568v34.1504a29.952 29.952 0 0 1-29.7984 30.1568h-30.4128a29.9008 29.9008 0 0 1-30.1056-29.5936v-34.7136h-0.1024z m370.9952 717.056H81.664V314.2144H942.592l-0.3072 577.792z m0.6144-682.752a30.0544 30.0544 0 0 1-30.0032 30.1568h-30.1056a30.1568 30.1568 0 0 1-30.3104-29.9008v-34.56c0-16.7424 13.5168-30.1568 30.3104-30.1568h30.1056c16.5888 0 30.0032 13.4144 30.0032 30.1568v34.304z" fill="#2c2c2c" p-id="3679"></path><path d="M763.4944 625.5616l-126.976 126.9248a12.8 12.8 0 0 1-18.1248 0l-18.176-18.1248a12.8 12.8 0 0 1 0-18.1248l99.7888-99.7376-99.7888-99.7376a12.8 12.8 0 0 1 0-18.1248l18.176-18.176a12.9024 12.9024 0 0 1 18.1248 0l126.976 126.976a12.8 12.8 0 0 1 0 18.1248z m-299.008 203.2128l-23.1424-6.4512c-6.4-1.792-10.2912-8.0896-8.7552-14.1312l103.0656-396.4416c1.6896-6.144 8.5504-9.6768 15.4112-7.8336l24.6784 6.656c6.9632 1.792 11.1616 8.2432 9.472 14.3872l-106.2912 396.1344c-1.5872 6.0416-7.9872 9.472-14.4384 7.68z m-40.704-94.3616l-18.1248 18.1248a12.8 12.8 0 0 1-18.1248 0L260.608 625.6128a12.8 12.8 0 0 1 0-18.1248l126.9248-126.976a12.9024 12.9024 0 0 1 18.1248 0l18.1248 18.176a12.8 12.8 0 0 1 0 18.1248l-99.7376 99.7376 99.7376 99.7376a12.8 12.8 0 0 1 0 18.1248z" fill="#2c2c2c" p-id="3680"></path></svg>