<?xml version="1.0" standalone="no"?><!DOCTYPE svg PUBLIC "-//W3C//DTD SVG 1.1//EN" "http://www.w3.org/Graphics/SVG/1.1/DTD/svg11.dtd"><svg t="1726132621314" class="icon" viewBox="0 0 1024 1024" version="1.1" xmlns="http://www.w3.org/2000/svg" p-id="1714" xmlns:xlink="http://www.w3.org/1999/xlink" width="200" height="200"><path d="M476.016215 331.039997L608.417593 694.540631H524.63406l-27.269859-83.052438H366.936782L339.666923 694.540631H255.88339l130.500529-363.500634H475.943106zM731.095401 328.99293v363.573743H655.207698V329.06604H731.095401z m-296.020528 63.166643h-1.827738a181.311659 181.311659 0 0 1-5.848764 31.656431l-40.941342 126.406395h95.042402l-40.941342-126.333286a314.371022 314.371022 0 0 1-5.483216-31.72954z" fill="#ffffff" p-id="1715"></path><path d="M561.042611 8.773145a143.221589 143.221589 0 0 0-119.534098 9.650459L81.663356 221.375687l-5.263887 3.436149a39.406042 39.406042 0 0 0-8.626925 53.589293 41.087562 41.087562 0 0 0 33.922826 17.619399 41.599328 41.599328 0 0 0 20.397562-5.336997l360.86869-203.536959 7.310954-3.436149a60.680918 60.680918 0 0 1 50.81113 3.801696l311.081093 175.462897 6.652968 4.459682a56.659894 56.659894 0 0 1 21.932862 44.889257v93.287773l-4.75212 3.363039a89.997844 89.997844 0 0 0-32.972402 105.935724 93.507102 93.507102 0 0 0 87.219681 59.072508c2.997491 0 5.994982 0 8.992473-0.438657a92.483568 92.483568 0 0 0 82.979328-75.449045 90.728939 90.728939 0 0 0-53.004416-97.893675l-6.652968-2.997491V312.470174l-0.365548-10.966431a136.934169 136.934169 0 0 0-69.819611-108.202119L582.171268 18.716042 571.789713 13.379046z m-49.34894 934.997908a59.803604 59.803604 0 0 1-29.243816-7.676502l-311.081093-175.462896-6.652968-4.459682a56.879222 56.879222 0 0 1-21.932862-44.889258V560.457734l4.75212-3.363039a89.632296 89.632296 0 0 0 34.434593-101.841589 93.72643 93.72643 0 0 0-179.703249 8.407597 91.021377 91.021377 0 0 0 52.127102 102.353356l6.652968 2.997491v142.198056l0.365548 10.893321a136.934169 136.934169 0 0 0 69.81961 108.275229l310.130669 174.95113 10.600884 5.410106a143.440918 143.440918 0 0 0 130.061872-5.410106l359.845156-202.952084 5.263887-3.363038a39.406042 39.406042 0 0 0 8.553816-53.589293 41.087562 41.087562 0 0 0-33.922827-17.619399 41.599328 41.599328 0 0 0-20.397561 5.336996l-360.9418 203.53696-7.310954 3.289929a59.730494 59.730494 0 0 1-21.421095 3.728586z" fill="#ffffff" p-id="1716"></path></svg>