<?xml version="1.0" standalone="no"?><!DOCTYPE svg PUBLIC "-//W3C//DTD SVG 1.1//EN" "http://www.w3.org/Graphics/SVG/1.1/DTD/svg11.dtd"><svg t="1730431479218" class="icon" viewBox="0 0 1024 1024" version="1.1" xmlns="http://www.w3.org/2000/svg" p-id="3204" xmlns:xlink="http://www.w3.org/1999/xlink" width="200" height="200"><path d="M510.065778 2.076444L952.888889 254.663111v509.013333l-438.954667 256.483556L71.111111 763.676444V254.634667L510.065778 2.048z m0 62.151112l-384.568889 221.496888V728.746667l384.568889 221.496889 384.568889-221.496889V285.724444l-384.568889-221.496888z m-11.662222 299.235555l27.192888 27.192889-38.855111 38.855111-27.192889-27.192889c-58.254222-54.414222-151.495111-50.517333-205.852444 3.868445-31.089778 27.192889-46.648889 62.179556-46.648889 104.931555 0 38.855111 15.559111 77.710222 42.752 104.903111a147.683556 147.683556 0 0 0 209.749333 0l174.819556-167.082666c15.530667-15.559111 38.826667-23.324444 62.151111-23.324445 46.620444 0 89.315556 38.855111 89.315556 89.372445 0 50.517333-38.826667 89.372444-89.315556 89.372444-23.324444 0-42.723556-7.765333-58.282667-23.324444l34.986667-42.723556c15.530667 11.662222 34.929778 11.662222 46.592-3.896889 11.662222-15.530667 11.662222-34.986667-3.868444-46.620444-11.662222-11.662222-31.089778-11.662222-46.648889 0l-174.791111 167.082666c-31.061333 38.855111-81.550222 58.311111-139.832889 58.311112-50.488889 0-104.874667-19.456-143.729778-58.311112-38.826667-38.855111-58.254222-93.240889-58.254222-143.758222 0-54.414222 23.324444-104.931556 62.151111-143.786666 77.681778-77.710222 201.984-81.607111 283.562667-3.896889z m201.984-15.559111a165.831111 165.831111 0 0 1 167.054222 167.082667c0 46.648889-19.427556 89.372444-46.648889 116.593777-31.061333 27.192889-73.784889 46.620444-120.405333 46.620445-42.723556 0-81.550222-15.559111-116.536889-46.648889l38.855111-38.855111c46.620444 42.752 112.64 42.752 159.288889 0 42.695111-42.723556 42.695111-116.565333 0-159.288889-42.752-42.752-116.565333-42.752-159.288889 0l-174.791111 167.082667c-50.517333 50.517333-128.199111 46.620444-178.688 0-50.517333-50.517333-46.620444-128.227556 0-178.744889 46.620444-46.648889 120.405333-46.648889 170.922666-7.793778l27.192889 27.221333-38.855111 38.855111-27.192889-23.324444c-27.192889-23.324444-69.916444-23.324444-93.240889 3.896889-27.192889 27.192889-27.192889 69.944889 0 101.034667 27.192889 27.192889 69.944889 27.192889 101.006223 0l174.791111-167.111112c31.089778-31.089778 73.813333-46.620444 116.536889-46.620444z" fill="#2c2c2c" p-id="3205"></path></svg>