<?xml version="1.0" encoding="UTF-8"?>
<!DOCTYPE svg PUBLIC "-//W3C//DTD SVG 1.1//EN" "http://www.w3.org/Graphics/SVG/1.1/DTD/svg11.dtd">
<svg xmlns="http://www.w3.org/2000/svg" version="1.1" width="250px" height="250px" style="shape-rendering:geometricPrecision; text-rendering:geometricPrecision; image-rendering:optimizeQuality; fill-rule:evenodd; clip-rule:evenodd" xmlns:xlink="http://www.w3.org/1999/xlink">
<g><path style="opacity:0.996" fill="#fefefe" d="M 29.5,-0.5 C 92.8333,-0.5 156.167,-0.5 219.5,-0.5C 236.011,2.34267 246.011,12.0093 249.5,28.5C 249.5,92.5 249.5,156.5 249.5,220.5C 246.271,236.062 236.938,245.729 221.5,249.5C 156.833,249.5 92.1667,249.5 27.5,249.5C 12.0353,245.703 2.70193,236.036 -0.5,220.5C -0.5,156.167 -0.5,91.8333 -0.5,27.5C 3.43867,11.5581 13.4387,2.2248 29.5,-0.5 Z"/></g>
<g><path style="opacity:1" fill="#2e2e2e" d="M 120.5,36.5 C 123.425,36.4598 126.091,37.2932 128.5,39C 153.914,53.4552 179.08,68.2886 204,83.5C 204.167,99 204.333,114.5 204.5,130C 204.653,146.255 204.153,162.422 203,178.5C 176.373,194.229 149.54,209.562 122.5,224.5C 95.4598,209.562 68.6265,194.229 42,178.5C 40.8472,162.422 40.3472,146.255 40.5,130C 40.6667,114.5 40.8333,99 41,83.5C 67.4808,67.6811 93.9808,52.0144 120.5,36.5 Z"/></g>
<g><path style="opacity:1" fill="#fcfcfc" d="M 121.5,50.5 C 145.189,63.4298 168.689,76.7632 192,90.5C 192.667,117.167 192.667,143.833 192,170.5C 168.915,183.96 145.748,197.293 122.5,210.5C 99.2517,197.293 76.085,183.96 53,170.5C 52.3333,143.833 52.3333,117.167 53,90.5C 75.9784,77.2663 98.8117,63.9329 121.5,50.5 Z"/></g>
<g><path style="opacity:1" fill="#2e2e2e" d="M 67.5,95.5 C 69.5273,95.3379 71.5273,95.5045 73.5,96C 89.8333,104.5 106.167,113 122.5,121.5C 138.833,113 155.167,104.5 171.5,96C 179.034,95.0356 181.701,98.2023 179.5,105.5C 163.24,114.881 146.74,123.881 130,132.5C 129.667,149.833 129.333,167.167 129,184.5C 127.982,187.683 125.815,189.016 122.5,188.5C 119.185,189.016 117.018,187.683 116,184.5C 115.667,167.167 115.333,149.833 115,132.5C 98.7538,123.961 82.5872,115.294 66.5,106.5C 63.6635,102.526 63.9968,98.8589 67.5,95.5 Z"/></g>
</svg>
