<?xml version="1.0" standalone="no"?><!DOCTYPE svg PUBLIC "-//W3C//DTD SVG 1.1//EN" "http://www.w3.org/Graphics/SVG/1.1/DTD/svg11.dtd"><svg t="1730431683700" class="icon" viewBox="0 0 1024 1024" version="1.1" xmlns="http://www.w3.org/2000/svg" p-id="3858" xmlns:xlink="http://www.w3.org/1999/xlink" width="200" height="200"><path d="M916.08257375 260.33155344L527.89931469 36.24121719a31.79862844 31.79862844 0 0 0-31.79862938 0l-388.18325906 224.03033906a31.91862375 31.91862375 0 0 0-15.89931469 27.59880937v448.12067438c0 11.39950875 6.11973563 21.89905594 15.89931469 27.59881031l388.18325906 224.09033625a32.5185975 32.5185975 0 0 0 31.79862938 0l388.18325906-224.09033625a31.91862375 31.91862375 0 0 0 15.89931469-27.59881031v-448.18067156a31.91862375 31.91862375 0 0 0-15.89931469-27.59881032z m-47.8179375 457.36027594L512 923.36295969l-356.26463625-205.67113032V306.34956875L512 100.67843844l356.26463625 205.67113031v411.34226062z" fill="#2c2c2c" p-id="3859"></path><path d="M216.75273219 348.3477575c-9.71958094 15.4793325-4.01982656 35.33847563 12.95944125 44.21809312l246.40937344 129.95439563v257.14891031c0 17.93922656 15.83931656 32.338605 35.39847375 32.33860594 19.67915156 0 35.39847375-14.39937937 35.39847375-32.39860313V523.00022563l247.36933218-130.49437219c16.97926781-8.8796175 22.67902219-28.73876063 12.95944125-44.21809313-9.71958094-15.53932969-31.43864437-20.75910469-48.357915-11.87948812L512 466.54266031l-246.82935563-130.19438531a37.37838844 37.37838844 0 0 0-48.41791218 11.9994825z" fill="#2c2c2c" p-id="3860"></path></svg>