<?xml version="1.0" encoding="UTF-8"?>
<!DOCTYPE svg PUBLIC "-//W3C//DTD SVG 1.1//EN" "http://www.w3.org/Graphics/SVG/1.1/DTD/svg11.dtd">
<svg xmlns="http://www.w3.org/2000/svg" version="1.1" width="250px" height="250px" style="shape-rendering:geometricPrecision; text-rendering:geometricPrecision; image-rendering:optimizeQuality; fill-rule:evenodd; clip-rule:evenodd" xmlns:xlink="http://www.w3.org/1999/xlink">
<g><path style="opacity:0.997" fill="#fefefe" d="M 29.5,-0.5 C 92.8333,-0.5 156.167,-0.5 219.5,-0.5C 236.011,2.34267 246.011,12.0093 249.5,28.5C 249.5,92.5 249.5,156.5 249.5,220.5C 246.271,236.062 236.938,245.729 221.5,249.5C 156.833,249.5 92.1667,249.5 27.5,249.5C 12.0353,245.703 2.70193,236.036 -0.5,220.5C -0.5,156.167 -0.5,91.8333 -0.5,27.5C 3.43867,11.5581 13.4387,2.2248 29.5,-0.5 Z"/></g>
<g><path style="opacity:1" fill="#2e2e2e" d="M 120.5,25.5 C 125.742,25.0227 130.742,25.8561 135.5,28C 158.91,40.7871 182.077,53.9538 205,67.5C 208.659,71.459 210.992,76.1256 212,81.5C 212.169,88.8559 212.669,96.1892 213.5,103.5C 226.481,112.161 227.814,122.328 217.5,134C 206.271,140.267 197.105,138.1 190,127.5C 186.585,118.71 188.418,111.376 195.5,105.5C 195.833,101.667 196.167,97.8333 196.5,94C 198.729,84.458 195.396,77.7913 186.5,74C 167.135,63.319 147.802,52.6523 128.5,42C 125.5,41.3333 122.5,41.3333 119.5,42C 95.3285,55.92 70.9951,69.5867 46.5,83C 38.8408,83.6712 35.6741,80.1712 37,72.5C 38.5,71 40,69.5 41.5,68C 63.9957,55.5864 86.329,42.9198 108.5,30C 112.503,28.1506 116.503,26.6506 120.5,25.5 Z"/></g>
<g><path style="opacity:1" fill="#2e2e2e" d="M 142.5,159.5 C 137.36,160.488 132.026,160.821 126.5,160.5C 125.334,155.17 123.668,150.003 121.5,145C 113.167,144.333 104.833,144.333 96.5,145C 94.578,150.277 92.578,155.444 90.5,160.5C 85.3054,160.821 80.3054,160.487 75.5,159.5C 82.8292,137.013 90.6625,114.68 99,92.5C 101.894,91.2203 105.061,90.5536 108.5,90.5C 111.752,90.5207 114.919,90.854 118,91.5C 126.272,114.152 134.439,136.819 142.5,159.5 Z"/></g>
<g><path style="opacity:1" fill="#2b2c2b" d="M 152.5,90.5 C 157.167,90.5 161.833,90.5 166.5,90.5C 166.5,113.833 166.5,137.167 166.5,160.5C 161.833,160.5 157.167,160.5 152.5,160.5C 152.5,137.167 152.5,113.833 152.5,90.5 Z"/></g>
<g><path style="opacity:1" fill="#2e2e2e" d="M 36.5,102.5 C 55.1708,100.997 62.6708,109.331 59,127.5C 57.3745,130.128 55.3745,132.461 53,134.5C 52.0421,146.596 52.3755,158.596 54,170.5C 75.6493,184.132 97.816,196.965 120.5,209C 127.069,209.591 133.069,207.924 138.5,204C 159.337,191.747 180.337,179.747 201.5,168C 209.017,166.979 212.517,170.146 212,177.5C 210.878,179.624 209.378,181.457 207.5,183C 183.5,196.333 159.5,209.667 135.5,223C 127.791,226.219 120.125,226.219 112.5,223C 91.8333,211.333 71.1667,199.667 50.5,188C 42.3665,183.538 37.8665,176.704 37,167.5C 36.6667,157.167 36.3333,146.833 36,136.5C 24.3,130.115 21.6334,121.115 28,109.5C 30.4412,106.546 33.2745,104.213 36.5,102.5 Z"/></g>
<g><path style="opacity:1" fill="#f4f4f4" d="M 117.5,130.5 C 112.265,132.45 106.598,133.117 100.5,132.5C 103.227,122.485 106.06,112.485 109,102.5C 111.917,111.755 114.75,121.089 117.5,130.5 Z"/></g>
<g><path style="opacity:1" fill="#585858" d="M 152.5,90.5 C 157.305,89.5128 162.305,89.1795 167.5,89.5C 167.831,113.339 167.498,137.006 166.5,160.5C 166.5,137.167 166.5,113.833 166.5,90.5C 161.833,90.5 157.167,90.5 152.5,90.5 Z"/></g>
<g><path style="opacity:1" fill="#969696" d="M 117.5,130.5 C 118.404,131.209 118.737,132.209 118.5,133.5C 112.31,133.823 106.31,133.49 100.5,132.5C 106.598,133.117 112.265,132.45 117.5,130.5 Z"/></g>
<g><path style="opacity:1" fill="#626262" d="M 75.5,159.5 C 80.3054,160.487 85.3054,160.821 90.5,160.5C 85.3197,161.815 79.9864,161.815 74.5,160.5C 74.6236,159.893 74.9569,159.56 75.5,159.5 Z"/></g>
<g><path style="opacity:1" fill="#686868" d="M 142.5,159.5 C 143.043,159.56 143.376,159.893 143.5,160.5C 137.68,161.816 132.013,161.816 126.5,160.5C 132.026,160.821 137.36,160.488 142.5,159.5 Z"/></g>
</svg>
