<?xml version="1.0" standalone="no"?><!DOCTYPE svg PUBLIC "-//W3C//DTD SVG 1.1//EN" "http://www.w3.org/Graphics/SVG/1.1/DTD/svg11.dtd"><svg t="1724436336442" class="icon" viewBox="0 0 1024 1024" version="1.1" xmlns="http://www.w3.org/2000/svg" p-id="955" xmlns:xlink="http://www.w3.org/1999/xlink" width="200" height="200"><path d="M959.871617 383.948647H938.541137V341.287686c0-117.616269-95.688535-213.304804-213.304804-213.304804h-170.643843V42.660961a42.660961 42.660961 0 1 0-85.321922 0v85.321921H298.626725C181.010457 127.982882 85.321922 223.671417 85.321922 341.287686v42.660961h-21.330481C28.710827 383.948647 0 412.659473 0 447.940088v127.982882c0 35.280615 28.710827 63.991441 63.991441 63.991441H85.321922v42.660961c0 117.616269 95.688535 213.304804 213.304803 213.304804h328.361415l169.065388 112.710258a91.507761 91.507761 0 0 0 94.110079 4.522062A91.550422 91.550422 0 0 0 938.541137 932.312637v-292.440887h21.33048c35.280615 0 63.991441-28.710827 63.991441-63.991441v-127.982882c0-35.280615-28.710827-63.991441-63.991441-63.991441zM853.219215 932.355297c0 0.938541 0 3.796826-3.327555 5.545925-3.412877 1.834421-5.801891 0.170644-6.484466-0.298626l-179.815949-119.8773A42.788944 42.788944 0 0 0 639.914411 810.558255H298.626725c-70.561229 0-127.982882-57.421653-127.982882-127.982883V341.287686c0-70.561229 57.421653-127.982882 127.982882-127.982882h426.609608c70.561229 0 127.982882 57.421653 127.982882 127.982882v591.067611zM298.626725 405.279127a63.991441 63.991441 0 1 1 128.025544 0.042661A63.991441 63.991441 0 0 1 298.626725 405.279127z m426.609608 0a63.991441 63.991441 0 1 1-128.025543-0.042661A63.991441 63.991441 0 0 1 725.236333 405.279127z m-6.527127 200.293211a42.660961 42.660961 0 0 1-13.438203 58.786804C661.031587 692.131427 591.536882 725.236333 511.97419 725.236333s-149.057397-33.104906-193.296813-60.877191a42.660961 42.660961 0 0 1 45.348601-72.267668c34.768683 21.842412 88.692137 47.822937 147.990873 47.822937s113.179529-25.980525 147.990873-47.822937a42.660961 42.660961 0 0 1 58.786804 13.480864z" fill="#2c2c2c" p-id="956"></path></svg>