<?xml version="1.0" standalone="no"?><!DOCTYPE svg PUBLIC "-//W3C//DTD SVG 1.1//EN" "http://www.w3.org/Graphics/SVG/1.1/DTD/svg11.dtd"><svg t="1730431702163" class="icon" viewBox="0 0 1024 1024" version="1.1" xmlns="http://www.w3.org/2000/svg" p-id="4038" xmlns:xlink="http://www.w3.org/1999/xlink" width="200" height="200"><path d="M893.15555555 58.02666667c40.21589333 0 72.81777778 32.60188445 72.81777778 72.81777778v162.70222222c0 40.21589333-32.60188445 72.81777778-72.81777778 72.81777778H492.65777778c-40.21589333 0-72.81777778-32.60188445-72.81777778-72.81777778v-53.47555556H130.84444445v235.52h762.3111111c40.21589333 0 72.81777778 32.60188445 72.81777778 72.81777778v218.45333333c0 40.21589333-32.60188445 72.81777778-72.81777778 72.81777778H604.16v53.47555555c0 40.21589333-32.60188445 72.81777778-72.81777778 72.81777778H130.84444445c-40.21589333 0-72.81777778-32.60188445-72.81777778-72.81777778V730.45333333c0-40.21589333 32.60188445-72.81777778 72.81777778-72.81777778h400.49777777c40.21589333 0 72.81777778 32.60188445 72.81777778 72.81777778v36.40888889h288.99555555V548.40888889H130.84444445c-40.21589333 0-72.81777778-32.60188445-72.81777778-72.81777778V240.07111111c0-40.21589333 32.60188445-72.81777778 72.81777778-72.81777778h288.99555555v-36.40888888c0-40.21589333 32.60188445-72.81777778 72.81777778-72.81777778h400.49777777zM531.34222222 730.45333333H130.84444445v162.70222222h400.49777777V730.45333333z m361.81333333-599.60888888H492.65777778v162.70222222h400.49777777V130.84444445z" fill="#2c2c2c" p-id="4039"></path></svg>