<?xml version="1.0" encoding="UTF-8"?>
<!DOCTYPE svg PUBLIC "-//W3C//DTD SVG 1.1//EN" "http://www.w3.org/Graphics/SVG/1.1/DTD/svg11.dtd">
<svg xmlns="http://www.w3.org/2000/svg" version="1.1" width="250px" height="250px" style="shape-rendering:geometricPrecision; text-rendering:geometricPrecision; image-rendering:optimizeQuality; fill-rule:evenodd; clip-rule:evenodd" xmlns:xlink="http://www.w3.org/1999/xlink">
<g><path style="opacity:0.997" fill="#fefefe" d="M 29.5,-0.5 C 92.8333,-0.5 156.167,-0.5 219.5,-0.5C 236.011,2.34267 246.011,12.0093 249.5,28.5C 249.5,92.5 249.5,156.5 249.5,220.5C 246.271,236.062 236.938,245.729 221.5,249.5C 156.833,249.5 92.1667,249.5 27.5,249.5C 12.0353,245.703 2.70193,236.036 -0.5,220.5C -0.5,156.167 -0.5,91.8333 -0.5,27.5C 3.43867,11.5581 13.4387,2.2248 29.5,-0.5 Z"/></g>
<g><path style="opacity:1" fill="#2e2e2e" d="M 138.5,173.5 C 157.326,174.497 176.326,174.83 195.5,174.5C 195.829,159.99 195.496,145.657 194.5,131.5C 143.499,131.667 92.4989,131.5 41.5,131C 36.5995,129.098 33.4329,125.598 32,120.5C 31.3333,102.833 31.3333,85.1667 32,67.5C 33.7786,63.3882 36.6119,60.2215 40.5,58C 61.164,57.5 81.8306,57.3334 102.5,57.5C 100.35,47.64 103.683,40.4733 112.5,36C 141.167,35.3333 169.833,35.3333 198.5,36C 203.333,38.1667 206.833,41.6667 209,46.5C 209.667,59.1667 209.667,71.8333 209,84.5C 207.594,89.5732 204.428,93.0732 199.5,95C 170.167,95.6667 140.833,95.6667 111.5,95C 103.075,89.417 100.075,81.5836 102.5,71.5C 83.8333,71.5 65.1667,71.5 46.5,71.5C 46.5,86.8333 46.5,102.167 46.5,117.5C 97.1678,117.333 147.834,117.5 198.5,118C 203.974,119.474 207.474,122.974 209,128.5C 209.667,144.833 209.667,161.167 209,177.5C 207.5,183 204,186.5 198.5,188C 178.503,188.5 158.503,188.667 138.5,188.5C 138.851,194.262 138.351,199.928 137,205.5C 134.913,209.302 131.746,211.802 127.5,213C 99.1667,213.667 70.8333,213.667 42.5,213C 37.6667,210.833 34.1667,207.333 32,202.5C 31.3333,189.5 31.3333,176.5 32,163.5C 33.7786,159.388 36.6119,156.222 40.5,154C 70.1667,153.333 99.8333,153.333 129.5,154C 136.943,158.389 139.943,164.889 138.5,173.5 Z"/></g>
<g><path style="opacity:1" fill="#919191" d="M 116.5,50.5 C 142.661,49.5022 168.995,49.1688 195.5,49.5C 195.828,60.3464 195.494,71.0131 194.5,81.5C 194.5,71.1667 194.5,60.8333 194.5,50.5C 168.5,50.5 142.5,50.5 116.5,50.5 Z"/></g>
<g><path style="opacity:1" fill="#fefefe" d="M 116.5,50.5 C 142.5,50.5 168.5,50.5 194.5,50.5C 194.5,60.8333 194.5,71.1667 194.5,81.5C 168.5,81.5 142.5,81.5 116.5,81.5C 116.5,71.1667 116.5,60.8333 116.5,50.5 Z"/></g>
<g><path style="opacity:1" fill="#fefefe" d="M 46.5,167.5 C 72.5,167.5 98.5,167.5 124.5,167.5C 124.5,177.833 124.5,188.167 124.5,198.5C 98.5,198.5 72.5,198.5 46.5,198.5C 46.5,188.167 46.5,177.833 46.5,167.5 Z"/></g>
<g><path style="opacity:1" fill="#b5b5b5" d="M 194.5,131.5 C 195.496,145.657 195.829,159.99 195.5,174.5C 176.326,174.83 157.326,174.497 138.5,173.5C 157.167,173.5 175.833,173.5 194.5,173.5C 194.5,159.5 194.5,145.5 194.5,131.5 Z"/></g>
<g><path style="opacity:1" fill="#919191" d="M 46.5,167.5 C 46.5,177.833 46.5,188.167 46.5,198.5C 72.5,198.5 98.5,198.5 124.5,198.5C 98.3386,199.498 72.0053,199.831 45.5,199.5C 45.1722,188.654 45.5056,177.987 46.5,167.5 Z"/></g>
</svg>
